<?xml version="1.0" encoding="utf-8"?>
<!-- Generator: Adobe Illustrator 24.0.0, SVG Export Plug-In . SVG Version: 6.00 Build 0)  -->
<svg version="1.1" id="Capa_1" xmlns="http://www.w3.org/2000/svg" xmlns:xlink="http://www.w3.org/1999/xlink" x="0px" y="0px"
	 viewBox="0 0 600 600" style="enable-background:new 0 0 600 600;" xml:space="preserve">
<style type="text/css">
	.st0{fill:#FF9595;}
</style>
<path class="st0" d="M220.2,441.8c-22.7,9-43.2,17.2-63.8,25.3c-34.2,13.5-54.4,4.7-68-29.6c-13.4-33.7-4.5-54.1,29.9-68
	c19.5-7.9,39-15.6,58.5-23.4c0.6-0.2,1-0.9,5.9-5.3c-20.4,1.7-36.3,2.9-52.2,4.2c-9.1,0.7-18.1,1.7-27.2,2.3
	c-41,2.8-57-11.4-59-51.9c-1.5-31.8,12.3-48.2,44.4-51.8c19.3-2.2,38.8-3.6,58.2-8.7c-12.7-1.8-25.5-3.6-38.2-5.5
	c-32.1-5-44-24-38.8-61.8c4.2-30.6,23.6-45.9,53.9-41.9c54.9,7.3,109.7,14.8,164.6,22.2c5.4,0.7,10.8,0.8,16.2,1.2
	c1.3-1.6,2.7-3.2,4-4.8c-12.3-11.1-25.1-21.7-36.6-33.6c-22.6-23.4-21-46.6,4.1-71.1c23.7-23.2,47-24,69.7-1.1
	c29.1,29.4,57.1,60,86.7,88.8c7,6.9,18.6,11,28.6,12.5c14.4,2.1,29.4,0.1,44.1,0.7c22.4,0.8,36.6,12.9,36.9,34.8
	c0.8,70.1,0.8,140.3,0,210.4c-0.2,20.8-14,32.8-35.1,34.7c-3.5,0.3-7.1,0.7-10.5,0.2c-50.3-8.5-90.4,9.5-126.8,43.7
	c-25.9,24.4-56,44.4-84.3,66.3c-27.4,21.1-49.3,19-71-6.8c-25.9-30.6-25.2-50.6,2.5-75.9C217.9,447.2,218.2,445.7,220.2,441.8z
	 M518.2,280.9c0-31.6-0.3-63.1,0.2-94.7c0.2-15-5.2-22-20.9-21.2c-17.5,0.9-35.2,1.5-52.5-0.4c-8.4-0.9-17.8-6-23.8-12.1
	C389,120.2,358,86.8,326.2,54.2c-9.4-9.6-19.3-9-29.6,0.1c-19.5,17.3-20.1,25.5-1.6,44.6c33.3,34.4,72.4,64.5,78.5,117.6
	c3.5,29.9,14.6,55.2,52,55.3c3.8,0,7.7,9.1,11.5,14c-6,3-12.2,8.6-18.1,8.4c-11-0.4-21.8-4.9-32.9-6.4c-13.6-1.8-20.6-8.7-24.1-22.1
	c-6.2-23.7-14.6-46.8-20.8-70.5c-3.1-11.8-8.5-16.9-21.1-18.4c-64-7.8-127.8-16.7-191.7-25.4c-24.5-3.3-31.2,0.6-34.1,21.4
	c-3.4,24.2,0.2,29.3,25.3,32.8c50.7,7.1,101.5,13.2,152,20.9c6.4,1,11.7,8.9,17.4,13.7c-5.7,4-11.1,8.4-17.1,11.8
	c-2.8,1.6-6.8,1.2-10.3,1.5c-53.8,4.7-107.5,9.4-161.3,13.9c-28,2.3-32.8,6.9-31,30.6c1.7,22.4,7,26.7,33.8,24.5
	c53.8-4.4,107.5-9.6,161.3-13.4c7.3-0.5,15.1,5.5,22.7,8.5c-5.7,5.9-10.4,14.3-17.4,17.2c-46.4,19.6-93.4,38-140.1,57
	c-24.1,9.8-26.8,15.9-17.8,37.6c8.5,20.5,15,22.9,37.8,13.8c46.2-18.5,92.1-37.6,138.6-55.2c7.4-2.8,17.1,0.5,25.8,1
	c-4.2,7.8-6.7,17.5-12.9,22.9c-22.2,19.3-45.4,37.4-68.7,55.4c-15.9,12.3-12.9,23.8-1.6,37.3c11.1,13.3,21.2,21.7,38.3,7.6
	c27.6-22.7,58.2-42.1,84.1-66.4c40.5-38.1,85.1-59.1,141.6-49.7c16.8,2.8,24.2-5.2,23.7-22.8C517.6,342.6,518.2,311.7,518.2,280.9z"
	/>
</svg>
