<?xml version="1.0" encoding="utf-8"?>
<!-- Generator: Adobe Illustrator 24.0.0, SVG Export Plug-In . SVG Version: 6.00 Build 0)  -->
<svg version="1.1" id="Capa_1" xmlns="http://www.w3.org/2000/svg" xmlns:xlink="http://www.w3.org/1999/xlink" x="0px" y="0px"
	 viewBox="0 0 600 600" style="enable-background:new 0 0 600 600;" xml:space="preserve">
<style type="text/css">
	.st0{fill:#BBBFCA;}
</style>
<path class="st0" d="M193.2,349.3c-42.5,6.7-81.2,12.6-119.8,18.9c-24.5,4-47.6,1.5-61.1-21.5c-14.6-24.8-16.8-52-2.9-78.3
	c9.6-18.2,26.5-24.5,46.6-27.1c46.4-6.1,92.5-14.2,139.3-26.5c-20-3.3-39.9-6.6-59.9-9.8c-29.6-4.7-59.3-8.5-88.7-14.1
	c-37.8-7.2-50.9-29.4-44.6-72.4c5.8-39.7,26.3-57.5,64-53c34,4.1,67.7,10.3,101.5,15.5c32.9,5.1,65.9,10.1,90.9,13.9
	c21.2-17.1,36.4-32.6,54.4-43c22.4-12.9,46.2-10.3,67.5,5.7c1.4,1,3,1.6,4.4,2.7c47.5,36.7,100.5,50.1,160.6,44.6
	c38.9-3.5,55,14.6,55.2,53.4c0.3,82.9,0.3,165.8-0.1,248.7c-0.2,34.3-15.5,54.1-46.8,50.8c-60.6-6.5-111.9,14.7-162.6,42.8
	c-20.9,11.6-43.4,20.4-64.3,32c-60.8,33.8-89.4-7.1-101.9-54.6c-2.7-10.2-8.2-20.5-15-28.5C184.8,420.3,169.4,390,193.2,349.3z
	 M492.8,428.9c18.4,0,35.5-0.6,52.5,0.1c19,0.8,25.6-8,25.4-26.4c-0.5-79.6-0.8-159.3,0.1-238.9c0.2-22.2-7.6-32.7-29.9-29.5
	c-63.5,8.9-119.5-8.5-169.9-47c-3.4-2.6-7.6-4-11.1-6.5c-18.3-12.8-36.7-5.4-49.2,6.2c-6.9,6.4-5.3,24.2-4,36.4
	c1.2,11.6,7.2,22.7,10.9,34.1c11.2,35,21.4,70.4,33.9,104.9c8.5,23.6,20.2,26,47.5,15.7c20-7.5,25.8-18.7,17.1-39.6
	c-10.2-24.4-18.5-49.8-25-75.5c-2.4-9.4-0.4-27.4,4.9-29.9c15.5-7.2,18.9,8.1,22.7,19.5c5.1,15.4,11.4,30.6,15.1,46.3
	c8.5,36,20.6,67.3,66.5,64.1c1.6-0.1,3.9,0.4,4.8,1.5c4.4,5.4,8.5,11.1,12.7,16.7c-6.4,4.1-13,11.7-19.2,11.4
	c-12.5-0.6-24.8-7.3-37.3-8c-8.7-0.4-25.6,6.8-25.4,7.7c4.1,19.9,4.4,45.5,17.2,57.7C476,372.2,487.3,396.3,492.8,428.9z
	 M310.9,231.4c-12.5,1.2-23.5,1.7-34.4,3.5c-72.2,12-144.4,24.2-216.6,36.5c-29.9,5.1-33.3,10.5-27.6,41.7c4.7,25.6,14.5,31,42,26.3
	c56.3-9.5,113.1-16.9,169.2-27.7c28.3-5.4,55.6-16.1,84.4-24.8C321.2,265.2,316.5,249.9,310.9,231.4z M298.8,199.5
	c-5.7-18.2-11.4-33.3-15-49c-3.8-16.2-12-23.7-29.2-26C192.7,116,131,106.2,69.4,96c-23.6-4-34.5,4-38.3,28.2s4.3,35.3,27.7,38.8
	c56.6,8.6,113.1,18.1,169.7,27C251,193.5,273.5,196.1,298.8,199.5z M281.7,518.6c2-1.3,4.1-2.6,6.1-3.9c2.5-0.4,5.3-0.3,7.5-1.4
	c51.3-25,103-49.3,153.5-75.8c20.1-10.6,9.7-27.6,2.5-42.3c-7.3-15-17.6-23.6-34.6-15.4c-49.1,23.7-98.4,47.1-146.5,72.7
	c-7.3,3.9-14,20.4-11.7,28.5C262.3,494.5,273.6,506.1,281.7,518.6z M407,315.1c-20.8-2.3-38.1-4.3-55.5-6c-3.9-0.4-8.5-0.7-11.8,0.9
	c-38.3,18.8-76.7,37.6-114.5,57.3c-21.7,11.3-13.8,27.9-5.9,44c7.9,16,17.4,23.6,36.5,13.7c46.3-24,93.6-46.3,140.3-69.5
	C421.7,342.7,422.8,335.6,407,315.1z"/>
</svg>
