<?xml version="1.0" encoding="utf-8"?>
<!-- Generator: Adobe Illustrator 24.0.0, SVG Export Plug-In . SVG Version: 6.00 Build 0)  -->
<svg version="1.1" id="Capa_1" xmlns="http://www.w3.org/2000/svg" xmlns:xlink="http://www.w3.org/1999/xlink" x="0px" y="0px"
	 viewBox="0 0 600 600" style="enable-background:new 0 0 600 600;" xml:space="preserve">
<style type="text/css">
	.st0{fill:#FF9595;}
</style>
<path class="st0" d="M552.6,304.6c0,46,0.5,92-0.1,138.1c-0.5,39.6-18.1,59.9-57.1,55.9c-65.2-6.7-125.1,15.7-187.3,25.9
	c-34.3,5.6-68.5,11.6-102.6,17.8c-63.2,11.5-93-11.9-93.4-76.2c-0.1-15.5-3.7-24.5-15.7-34.9c-23.7-20.3-22.1-49.7-22.1-78.1
	c0-9.7-2.4-21.3-8-28.7c-19.3-25.3-24.2-68.2-10.5-95.9c3.7-7.5,3.1-17.9,2.3-26.7c-1.7-18.5-7.5-37-6.7-55.3
	c1.2-29.3,23.1-49.2,53.2-52.3c18.7-1.9,37.4-3.7,56.2-3.8c19.4-0.1,34.1-3.9,48-20.9c21.5-26.4,67.2-30.1,97.6-13
	c2.5,1.4,5.1,2.6,7.3,4.3c53.5,41.6,113.4,57.1,181.1,50.8c40.4-3.7,57.5,16.3,57.9,57.9C553,214.5,552.6,259.5,552.6,304.6z
	 M414.4,466.3c12.6,0,22.9,0.1,33.2,0c81.6-1.2,71.8,12.4,72.3-71c0.4-59.1,0.1-118.3,0.1-177.4c0-74-0.1-75.9-74.9-73.3
	c-39.3,1.3-73.5-6.6-105.3-29.4c-17.5-12.5-36-26-56.1-31.6c-14.8-4.1-35.1,0.4-48.7,8.2c-6.8,3.9-8.4,25.4-5,36.8
	c15.2,51.2,32.8,101.8,49.9,152.4c9.5,28,18,31.1,46.6,22.6c25.4-7.5,32.7-21.5,23.3-46.5c-10.8-29-20.9-58.4-28.7-88.3
	c-2.1-8.2,5-18.9,7.9-28.4c7.7,6.3,18.3,11,22.6,19.1c7.3,13.9,12,29.6,15.5,45.1c9.7,43.9,23.6,82.5,79.5,82.2
	c5.1,0,10.2,12.3,15.3,18.9c-8.1,4.1-16.4,11.7-24.4,11.4c-14.7-0.5-29.2-7.4-44-8.3c-7.4-0.4-21.6,6.3-21.8,10.3
	c-0.8,20.3-6,50.4,4.9,59.2C405.4,401.7,408.5,432,414.4,466.3z M187.6,511.7c51.5-8.9,111.8-18.2,171.6-30.1
	c24-4.8,20.1-25.2,17-43.6c-3-18.1-11-31.2-31.2-27.9c-59.3,9.4-118.6,19.4-177.6,30.3c-21.2,3.9-25.1,19.5-21.1,38.8
	C150.1,497.7,153.9,515.2,187.6,511.7z M337.9,347.4c-28.5-8.5-49.6-14.9-70.8-21.2c-5.1-1.5-10.5-5.1-15.3-4.4
	c-41.7,6-83.6,11.3-124.8,19.8c-28.5,5.8-20.4,29-16.9,48c3.5,19,14.8,26.3,34.6,22.5c55.2-10.5,110.5-20.2,165.8-30
	C343,376.3,345.5,372.2,337.9,347.4z M223.7,217.5c-42.2,6.2-80.9,11.5-119.5,17.6c-22,3.4-24.9,18.9-22.6,37.8
	c2.4,18.8,6.3,37.8,30.4,35.1c44.2-5,88.1-12.5,135.1-19.4C238.9,263.7,231.7,241.9,223.7,217.5z M212.8,185.1
	c-6.4-19.1-10.5-35.4-17.5-50.4c-2.6-5.6-11.8-11.6-18-11.6c-23.4,0.1-46.8,1.8-70.1,4.4c-22.5,2.5-24.8,19.2-23.3,37.6
	c1.4,17.8,4.6,36.7,27.3,34.8C144.5,197.1,177.4,190.4,212.8,185.1z"/>
</svg>
